<?xml version="1.0" encoding="UTF-8" standalone="no"?>
<svg
   id="svg"
   version="1.1"
   width="400"
   height="400"
   viewBox="0, 0, 400,400"
   sodipodi:docname="icon.svg"
   inkscape:version="1.1 (c68e22c387, 2021-05-23)"
   inkscape:export-filename="C:\Users\mateu\Desktop\nimo-clean-layout\src\images\300.png"
   inkscape:export-xdpi="72"
   inkscape:export-ydpi="72"
   xmlns:inkscape="http://www.inkscape.org/namespaces/inkscape"
   xmlns:sodipodi="http://sodipodi.sourceforge.net/DTD/sodipodi-0.dtd"
   xmlns="http://www.w3.org/2000/svg"
   xmlns:svg="http://www.w3.org/2000/svg">
  <defs
     id="defs8" />
  <sodipodi:namedview
     id="namedview6"
     pagecolor="#ffffff"
     bordercolor="#999999"
     borderopacity="1"
     inkscape:pageshadow="0"
     inkscape:pageopacity="0"
     inkscape:pagecheckerboard="0"
     showgrid="false"
     inkscape:zoom="1.09125"
     inkscape:cx="-423.3677"
     inkscape:cy="87.972509"
     inkscape:window-width="3840"
     inkscape:window-height="2066"
     inkscape:window-x="-11"
     inkscape:window-y="-11"
     inkscape:window-maximized="1"
     inkscape:current-layer="svg" />
  <rect
     style="opacity:1;fill:#632bf9;fill-opacity:1;stroke-width:52.3572;stroke-linecap:round;stroke-linejoin:round;paint-order:markers fill stroke"
     id="rect1628"
     width="400.91638"
     height="400.45819"
     x="0"
     y="0"
     ry="19.83917"
     rx="0"
     inkscape:export-filename="C:\Users\mateu\Desktop\nimo-clean-layout\src\images\128.png"
     inkscape:export-xdpi="30.719999"
     inkscape:export-ydpi="30.719999" />
  <path
     id="path1"
     style="fill:#ffffff;fill-opacity:1;stroke-width:0.447188"
     d="m 220.17144,135.94672 c -1.07281,0.006 -2.07161,0.0778 -2.21918,0.16057 -0.47134,0.26384 -5.12431,2.43448 -6.26063,2.92103 -2.69028,1.15061 -4.15014,1.80047 -6.70806,2.98506 -0.59029,0.27324 -1.39536,0.63702 -1.78888,0.8083 -0.80986,0.35238 -2.40854,1.08463 -4.38243,2.00718 -0.73786,0.34478 -1.66328,0.77103 -2.05681,0.94721 -0.39353,0.17575 -1.11745,0.49987 -1.60936,0.71988 -0.4919,0.22002 -1.50757,0.66267 -2.25617,0.9842 -0.74903,0.32154 -1.87595,0.82389 -2.50424,1.1159 -2.98455,1.3854 -3.5859,1.64996 -3.74465,1.64996 -0.0939,0 -0.1705,0.0811 -0.1705,0.17952 0,0.0984 -0.12901,0.17861 -0.28597,0.17861 -0.15741,0 -0.98298,0.33006 -1.83398,0.73342 -0.85145,0.40337 -1.88947,0.88659 -2.30759,1.07351 -0.41812,0.18692 -1.10193,0.49235 -1.52005,0.67928 -2.52617,1.12736 -3.88475,1.29438 -12.47704,1.53809 -8.48852,0.24059 -12.01816,0.41565 -13.14731,0.65133 -4.31983,0.90108 -8.13859,2.47463 -11.24566,4.63231 -0.77452,0.53752 -1.61425,1.11419 -1.86646,1.281 -3.74163,2.47606 -8.94897,10.25526 -10.05307,15.01827 -0.12209,0.52589 -0.28621,1.1167 -0.36536,1.31347 -0.47939,1.19175 -0.52774,4.14643 -0.52774,32.26476 0,19.24073 0.062,29.47787 0.18403,30.17728 1.11574,6.38541 3.95778,11.6638 8.83794,16.41383 0.79287,0.77185 1.80443,1.65258 2.24716,1.95668 0.44271,0.30363 0.84479,0.60177 0.89398,0.66213 0.45569,0.55945 3.94023,2.471 6.52945,3.58227 0.6462,0.27725 2.48642,0.83796 3.39823,1.03562 0.49191,0.10643 1.45745,0.33893 2.14612,0.51692 1.93812,0.50129 88.37825,0.50346 90.33248,0.003 0.68866,-0.17619 1.61409,-0.4064 2.0568,-0.51149 1.04731,-0.24909 2.86715,-0.83678 3.26293,-1.05366 0.17082,-0.0939 0.39784,-0.1705 0.50517,-0.1705 0.26697,0 3.6396,-1.68904 4.27238,-2.13979 0.28127,-0.20035 0.56528,-0.36446 0.63057,-0.36446 0.0658,0 0.22439,-0.10075 0.35273,-0.22372 0.12879,-0.12298 0.69953,-0.54558 1.26835,-0.93909 3.53145,-2.44256 7.22482,-6.8893 9.13745,-11.00121 0.4445,-0.95519 0.81317,-1.83516 0.80468,-1.91877 -0.003,-0.0224 0.19288,-0.48824 0.43391,-1.03382 0.24149,-0.54601 0.43933,-1.17786 0.43933,-1.40457 0,-0.22674 0.0578,-0.46972 0.12809,-0.54037 0.20437,-0.20392 0.57066,-1.75112 0.57916,-2.44471 0.005,-0.34926 0.0769,-0.71212 0.16147,-0.80558 0.64575,-0.7164 0.89852,-54.33751 0.27424,-58.30408 -0.15473,-0.98381 -0.32248,-2.11072 -0.37257,-2.50424 -0.0501,-0.39352 -0.16359,-0.79151 -0.25168,-0.88497 -0.0881,-0.0935 -0.16058,-0.37016 -0.16058,-0.61434 0,-0.40828 -0.205,-1.19033 -0.54397,-2.07845 -0.0751,-0.19677 -0.3181,-0.84045 -0.53945,-1.43074 -0.48879,-1.30445 -1.67362,-3.67548 -2.32294,-4.65036 -0.26205,-0.39353 -0.50822,-0.7988 -0.54758,-0.9003 -0.42885,-1.11172 -4.16486,-5.2821 -5.97374,-6.66838 -0.59029,-0.45211 -1.11363,-0.8715 -1.16282,-0.93188 -0.13103,-0.16009 -1.57453,-1.1297 -2.50425,-1.68152 -1.56427,-0.92881 -4.04512,-2.04743 -5.72386,-2.58003 -1.64431,-0.52142 -2.14324,-0.65685 -4.00266,-1.08794 -0.91047,-0.21152 -6.70835,-0.45002 -15.66598,-0.6441 -7.2695,-0.15741 -7.11861,-0.0526 -6.44917,-4.46724 0.10464,-0.68866 0.26693,-1.77545 0.35994,-2.41493 0.093,-0.63948 0.25349,-1.72627 0.35724,-2.41495 0.8036,-5.34345 0.81473,-5.58292 0.30851,-6.70715 -0.95788,-2.12773 -1.86715,-2.68636 -4.34995,-2.67295 z m 4.63773,50.08677 c 0.31533,0.0107 0.62492,0.0771 0.91925,0.19035 0.05,0.0172 0.10405,0.0209 0.15336,0.0416 0.0377,0.0158 0.0683,0.054 0.10554,0.0721 0.23194,0.11581 0.44892,0.26552 0.64952,0.44113 0.0211,0.0196 0.0424,0.0346 0.0631,0.0551 0.40121,0.37038 0.72334,0.85527 0.91474,1.43525 0.23367,0.70746 0.21532,1.29763 -0.14344,1.91698 -0.002,0.004 -0.005,0.008 -0.007,0.0117 -0.0985,0.16806 -0.2223,0.33871 -0.37346,0.51421 -0.11841,0.14285 -0.27423,0.30169 -0.43843,0.45557 -0.0951,0.0893 -0.19725,0.18021 -0.30582,0.27333 -0.15403,0.13021 -0.32026,0.26983 -0.51058,0.41497 -0.32075,0.24877 -0.68029,0.51108 -1.09336,0.79656 -0.63948,0.44204 -1.11845,0.76661 -1.44157,1.02931 -1.6e-4,1.3e-4 -8.2e-4,-1.4e-4 -8.2e-4,0 -0.48418,0.39376 -0.61767,0.64885 -0.41588,0.95172 0.0658,0.0987 0.16929,0.20389 0.30581,0.31934 0.003,0.002 0.005,0.004 0.007,0.007 0.003,0.003 0.008,0.006 0.0117,0.009 0.28274,0.23605 0.70599,0.51886 1.27288,0.90662 0.57128,0.39061 1.03241,0.71499 1.40819,0.99682 0.37577,0.28183 0.66592,0.52088 0.89398,0.73973 0.22807,0.21885 0.39417,0.41718 0.52232,0.61885 0.12815,0.20167 0.21807,0.40658 0.29409,0.63688 0.0948,0.28704 0.13494,0.57469 0.129,0.8561 -0.006,0.28142 -0.058,0.55691 -0.14885,0.81911 -0.0908,0.26222 -0.21992,0.51123 -0.37978,0.74064 -0.15866,0.22767 -0.34817,0.43502 -0.55931,0.61704 -8.2e-4,8.3e-4 -0.003,0.003 -0.005,0.005 -0.002,0.002 -0.004,0.003 -0.007,0.005 -0.21153,0.18084 -0.44465,0.33637 -0.69282,0.45827 -0.25047,0.12303 -0.51549,0.21306 -0.78754,0.26252 -0.27204,0.0494 -0.55125,0.0584 -0.82903,0.0207 -0.27779,-0.0376 -0.55412,-0.12225 -0.82182,-0.26072 -0.25618,-0.13237 -1.78943,-1.16242 -3.47402,-2.3166 -0.0774,-0.0531 -0.10329,-0.071 -0.18132,-0.12449 -1.68809,-1.15819 -3.49458,-2.41754 -4.32019,-3.02657 -0.19291,-0.1423 -0.36605,-0.29695 -0.52142,-0.46007 -0.75992,-0.7351 -1.0659,-1.53826 -0.91654,-2.37074 0.0426,-0.57912 0.27105,-1.1394 0.70275,-1.60756 0.11257,-0.1221 0.41759,-0.37086 0.79384,-0.66575 0.18365,-0.16238 0.35896,-0.32504 0.57555,-0.48623 2.17875,-1.62167 3.71159,-2.69079 4.99407,-3.51462 1.14765,-0.77872 2.10818,-1.40023 2.43478,-1.5444 0.40046,-0.17675 0.81587,-0.25294 1.22236,-0.23906 z m -45.18382,1.03562 c 0.13366,0.0106 0.27258,0.0523 0.40774,0.0713 0.17016,0.0233 0.33873,0.0536 0.50518,0.0893 0.007,8.2e-4 0.0152,0.002 0.0225,0.004 0.25113,0.0553 0.50319,0.12996 0.75777,0.2156 0.12432,0.0425 0.24672,0.0887 0.36805,0.13803 0.17359,0.0684 0.34511,0.11068 0.51961,0.19395 1.75164,0.83618 2.94176,2.27771 3.52814,3.91785 0.61952,1.59904 0.65784,3.43621 -0.16327,5.21778 -0.26477,0.57442 -0.59356,1.09262 -0.97157,1.55344 -4.7e-4,8.2e-4 -8.3e-4,0.002 -0.002,0.003 -0.002,0.002 -0.004,0.003 -0.006,0.006 -0.1846,0.22434 -0.38057,0.43502 -0.58728,0.63148 -0.007,0.007 -0.0126,0.0148 -0.0198,0.0216 -0.009,0.008 -0.0192,0.0134 -0.0279,0.0216 -0.31791,0.29665 -0.65973,0.56028 -1.01939,0.79024 -0.0557,0.0358 -0.11131,0.0697 -0.16779,0.10375 -0.33132,0.19915 -0.67646,0.36997 -1.03201,0.51239 -0.0661,0.0264 -0.13083,0.0541 -0.19756,0.0785 -0.38326,0.14062 -0.77705,0.24813 -1.17635,0.32205 -0.0292,0.005 -0.0582,0.0105 -0.0875,0.0154 -2.16887,0.37399 -4.48895,-0.24629 -6.15417,-2.00719 -0.29759,-0.31465 -0.5566,-0.64707 -0.78484,-0.9905 -0.0591,-0.0871 -0.11249,-0.1745 -0.16689,-0.26252 -0.14259,-0.23615 -0.27061,-0.47727 -0.38249,-0.72259 -0.11038,-0.23643 -0.2004,-0.47356 -0.28056,-0.71356 -0.0188,-0.0569 -0.035,-0.11424 -0.0523,-0.17141 -0.10646,-0.35003 -0.18455,-0.69962 -0.23094,-1.05185 -0.0135,-0.0958 -0.0238,-0.1918 -0.0334,-0.28777 -0.0177,-0.20298 -0.0361,-0.4044 -0.0352,-0.60622 -0.0361,-2.88989 1.69508,-5.70791 4.77666,-6.72701 0.0187,-0.006 0.0372,-0.0102 0.056,-0.0163 0.64842,-0.22242 1.33886,-0.33431 2.0577,-0.34099 0.19337,-0.002 0.38202,-0.0238 0.57915,-0.008 z m 17.96003,14.83334 c 0.79473,-0.0134 1.60309,0.12259 2.38969,0.42399 0.4919,0.18827 1.19257,0.52105 1.55614,0.73882 0.36356,0.21778 4.50923,2.60974 9.21232,5.31522 10.9901,6.32236 11.23392,6.54976 11.23392,10.46444 0,3.16655 -0.80889,4.34336 -4.42934,6.45007 -1.30265,0.75843 -2.60963,1.52019 -2.90478,1.69325 -1.42026,0.83177 -3.65978,2.12755 -4.38244,2.53582 -0.44271,0.24998 -2.89801,1.66227 -5.45594,3.13844 -3.93705,2.2726 -4.83508,2.7202 -5.85468,2.91741 -2.88301,0.55765 -5.807,-0.90115 -7.23308,-3.60934 l -0.50699,-0.96164 v -12.07831 -12.0774 l 0.58186,-1.18086 c 1.15174,-2.33969 3.40916,-3.72971 5.79332,-3.76991 z" />
  <g
     id="g842"
     transform="matrix(13.690522,0,0,13.690522,36.105948,35.942831)">
    <path
       id="path832"
       style="fill:#ffffff"
       data-original="#000000"
       d="m 23.383,2.076 c -0.374,-0.155 -0.804,-0.07 -1.09,0.217 l -4,4 C 18.007,6.579 17.921,7.009 18.076,7.383 18.23,7.756 18.596,8 19,8 h 4 c 0.553,0 1,-0.448 1,-1 V 3 C 24,2.596 23.757,2.231 23.383,2.076 Z"
       inkscape:connector-curvature="0" />
    <path
       id="path834"
       style="fill:#ffffff"
       data-original="#000000"
       d="M 5,16 H 1 c -0.553,0 -1,0.448 -1,1 v 4 c 0,0.404 0.243,0.769 0.617,0.924 C 0.741,21.975 0.871,22 1,22 1.26,22 1.516,21.898 1.707,21.707 l 4,-4 C 5.993,17.421 6.079,16.991 5.924,16.617 5.77,16.244 5.404,16 5,16 Z"
       inkscape:connector-curvature="0" />
    <path
       id="path836"
       style="fill:#ffffff"
       data-original="#000000"
       d="M 1.001,11.56 C 0.958,11.56 0.915,11.558 0.871,11.552 0.323,11.481 -0.063,10.979 0.009,10.431 0.782,4.484 5.941,0 12.01,0 15.7,0 19.334,1.63 21.732,4.36 22.097,4.775 22.056,5.407 21.641,5.771 21.226,6.134 20.594,6.094 20.23,5.679 18.206,3.375 15.133,2 12.01,2 6.943,2 2.637,5.735 1.991,10.689 1.926,11.193 1.496,11.56 1.001,11.56 Z"
       inkscape:connector-curvature="0" />
    <path
       id="path838"
       style="fill:#ffffff"
       data-original="#000000"
       d="M 12,24 C 8.315,24 4.678,22.371 2.27,19.642 1.905,19.228 1.944,18.596 2.358,18.23 2.772,17.867 3.403,17.903 3.77,18.318 5.804,20.624 8.881,22 12,22 c 5.066,0 9.373,-3.735 10.019,-8.689 0.071,-0.548 0.568,-0.941 1.12,-0.863 0.548,0.071 0.934,0.573 0.862,1.121 C 23.228,19.516 18.068,24 12,24 Z"
       inkscape:connector-curvature="0" />
  </g>
</svg>
